# xmcd
#
# Track frame offsets:
#	150
#	18151
#	40001
#	64448
#	82460
#	106823
#	129048
#	143817
#	165418
#	189838
#	210980
#	222269
#	237656
#
# Disc length: 3518 seconds
#
# Revision: 1
# Processed by: cddbd v1.5.1PL0 Copyright (c) Steve Scherf et al.
# Submitted via: audiograbber 1.83.01
#
DISCID=ad0dbc0d
DTITLE=Stan The Man's Bohemian Blues Feat. Betty S - Life Goes On
DYEAR=1900
DGENRE=Blues Rock
TTITLE0=Don't Mess With My Man
TTITLE1=Fire Mountain [I]
TTITLE2=Life Goes On
TTITLE3=Just Like I Treat You
TTITLE4=I'm A Fool For Your Stockings
TTITLE5=Fire Mountain [II]
TTITLE6=This Old Town
TTITLE7=Next Time You See Me
TTITLE8=You're Going To Miss Me
TTITLE9=I Can't Stand The Rain
TTITLE10=Six-Foot Cutie
TTITLE11=Fire Mountain [III]
TTITLE12=Summer Time
EXTD=
EXTT0=
EXTT1=
EXTT2=
EXTT3=
EXTT4=
EXTT5=
EXTT6=
EXTT7=
EXTT8=
EXTT9=
EXTT10=
EXTT11=
EXTT12=
PLAYORDER=
